<?xml version="1.0" encoding="iso-8859-1"?>
<!-- Uploaded to: SVG Repo, www.svgrepo.com, Generator: SVG Repo Mixer Tools -->
<svg fill="#000000" height="800px" width="800px" version="1.1" id="Layer_1" xmlns="http://www.w3.org/2000/svg" xmlns:xlink="http://www.w3.org/1999/xlink" 
	 viewBox="0 0 343.899 343.899" xml:space="preserve">
<g>
	<g>
		<g fill="currentColor">
			<path d="M306.33,181.261h-71.064v-49.554c0-20.716-16.854-37.569-37.569-37.569h-51.494c-20.716,0-37.569,16.854-37.569,37.569
				v14.418H37.569C16.854,146.126,0,162.979,0,183.695v115.199c0,4.971,4.029,9,9,9h325.899c4.971,0,9-4.029,9-9v-80.063
				C343.899,198.115,327.046,181.261,306.33,181.261z M108.633,289.894H18V183.695c0-10.791,8.779-19.569,19.569-19.569h71.064
				V289.894z M217.266,289.894h-90.633V131.708c0-10.791,8.779-19.57,19.57-19.57h51.494c10.791,0,19.569,8.779,19.569,19.569
				V289.894z M325.899,289.894h-90.633v-90.633h71.064c10.791,0,19.569,8.779,19.569,19.569V289.894z"/>
		</g>
	</g>
</g>
</svg>